<svg xmlns="http://www.w3.org/2000/svg" style="width:0; height:0; visibility:hidden;">
    <symbol id="icon_comment" viewBox="0 0 96 96">
        <g id="XMLID_5_"> <path id="XMLID_9_" class="st0" d="M15.5,15.5v48.8h16.3v16.3l22.8-16.3h25.9V15.5H15.5z M72.4,56.1H56.1L39.9,68.3V56.1H23.6V23.6
		h48.8V56.1z"/> </g> 
    </symbol>
    <symbol id="icon_refresh" viewBox="0 0 32 32">
       <path style="text-indent:0;text-align:start;line-height:normal;text-transform:none;block-progression:tb;-inkscape-font-specification:Bitstream Vera Sans" d="M 16 4 C 10.888652 4 6.6170137 7.16109 4.875 11.625 L 6.71875 12.375 C 8.1767363 8.63891 11.711348 6 16 6 C 19.240366 6 22.133605 7.5895584 23.9375 10 L 20 10 L 20 12 L 26 12 L 27 12 L 27 11 L 27 5 L 25 5 L 25 8.09375 C 22.810028 5.580832 19.57094 4 16 4 z M 25.28125 19.625 C 23.823264 23.36109 20.288652 26 16 26 C 12.723524 26 9.8434309 24.388336 8.03125 22 L 12 22 L 12 20 L 6 20 L 5 20 L 5 21 L 5 27 L 7 27 L 7 23.90625 C 9.1885848 26.385518 12.394607 28 16 28 C 21.111348 28 25.382986 24.83891 27.125 20.375 L 25.28125 19.625 z" color="#000" overflow="visible" font-family="Bitstream Vera Sans"/> 
    </symbol>
    <symbol id="icon_search" viewBox="0 0 32 32">
       <path d="M19.427 20.427c-1.39 0.99-3.090 1.573-4.927 1.573-4.694 0-8.5-3.806-8.5-8.5s3.806-8.5 8.5-8.5c4.694 0 8.5 3.806 8.5 8.5 0 2.347-0.951 4.472-2.49 6.010l5.997 5.997c0.275 0.275 0.268 0.716-0.008 0.992-0.278 0.278-0.72 0.28-0.992 0.008l-6.081-6.081zM14.5 21c4.142 0 7.5-3.358 7.5-7.5s-3.358-7.5-7.5-7.5c-4.142 0-7.5 3.358-7.5 7.5s3.358 7.5 7.5 7.5v0z"/> 
    </symbol>
    <symbol id="icon_share-arrow" viewBox="0 0 441.121 441.121">
       <g> <g> <path d="M376.677,171.954h-71.967c-9.35,0-17,7.65-17,17s7.65,17,17,17h54.683v201.167H81.727V205.954h60.35c9.35,0,17-7.65,17-17
			s-7.65-17-17-17H64.444c-9.35,0-16.717,8.5-16.717,17.85v235.733c0,9.35,7.367,15.583,16.717,15.583h312.233
			c9.35,0,16.717-6.233,16.717-15.583V189.804C393.394,180.454,386.027,171.954,376.677,171.954z"/> <path d="M217.727,299.454c9.35,0,17-7.65,17-17V52.104l72.533,64.6c3.117,2.833,7.367,4.25,11.333,4.25
			c4.817,0,9.35-1.983,12.75-5.667c6.233-7.083,5.667-17.85-1.417-24.083l-97.75-86.983c-6.233-5.383-15.3-5.667-21.817-0.567
			c-3.117,1.417-5.667,3.967-7.367,6.8l-84.717,81.317c-6.8,6.517-7.083,17.283-0.567,24.083c6.517,6.8,17.283,7.083,24.083,0.567
			l58.933-56.667v222.7C200.727,291.804,208.377,299.454,217.727,299.454z"/> </g> </g>                
    </symbol>
    <symbol id="icon_share" viewBox="0 0 18 21.97">
        <path id="share" class="cls-1" d="M360,3049.8h-5v12.99h15V3049.8h-5v2h3v8.99H357v-8.99h3v-2Zm2,8.99h1v-14.98h-1v14.98Zm-3.842-9.54,3.947-3.89h0.79l3.947,3.89v-1.56l-3.947-3.88h-0.79l-3.947,3.88v1.56Z" transform="translate(-353.5 -3042.31)"/> 
    </symbol>
    <symbol id="icon_behance" viewBox="0 0 128 128">
      <g id="_x35__stroke"><g id="Behance_1_"><rect clip-rule="evenodd" fill="none" fill-rule="evenodd" height="128" width="128"/><path clip-rule="evenodd" d="M58.725,32.316    c2.416,3.319,3.627,7.284,3.627,11.909c0,4.759-1.212,8.598-3.658,11.493c-1.37,1.619-3.379,3.103-6.036,4.44    c4.034,1.455,7.074,3.749,9.144,6.89c2.047,3.133,3.078,6.949,3.078,11.434c0,4.626-1.174,8.776-3.53,12.444    c-1.49,2.428-3.357,4.477-5.599,6.14c-2.521,1.908-5.494,3.207-8.933,3.92c-3.439,0.705-7.157,1.047-11.176,1.047H0V24h38.224    C47.872,24.141,54.698,26.91,58.725,32.316z M15.767,37.55v17.218h19.236c3.424,0,6.216-0.646,8.369-1.938    c2.137-1.292,3.214-3.579,3.214-6.845c0-3.645-1.415-6.044-4.245-7.217c-2.453-0.809-5.569-1.218-9.355-1.218H15.767z     M15.767,67.679V88.49h19.206c3.432,0,6.111-0.46,8.015-1.374c3.469-1.708,5.2-4.945,5.2-9.741c0-4.069-1.671-6.853-5.035-8.375    c-1.881-0.846-4.523-1.292-7.91-1.322H15.767z M112.7,45.502c4.087,1.797,7.451,4.648,10.1,8.538    c2.416,3.43,3.966,7.41,4.674,11.931c0.414,2.643,0.579,6.474,0.512,11.456H85.366c0.256,5.784,2.273,9.845,6.126,12.169    c2.333,1.448,5.14,2.175,8.437,2.175c3.469,0,6.307-0.884,8.482-2.643c1.197-0.958,2.25-2.279,3.153-3.972h15.616    c-0.414,3.415-2.31,6.897-5.667,10.432c-5.238,5.606-12.576,8.412-22.006,8.412c-7.789,0-14.66-2.361-20.598-7.098    c-5.968-4.729-8.933-12.436-8.933-23.098c0-10.001,2.687-17.671,8.053-23.009c5.381-5.323,12.342-8.004,20.914-8.004    C104.038,42.792,108.621,43.697,112.7,45.502z M89.821,58.539c-2.16,2.198-3.522,5.175-4.079,8.932h26.363    c-0.278-4.009-1.648-7.039-4.072-9.125c-2.453-2.071-5.471-3.103-9.084-3.103C95.037,55.243,91.981,56.342,89.821,58.539z     M81.791,37.349h33.897v-9.711H81.791V37.349z" fill-rule="evenodd" id="Behance"/></g></g>
    </symbol>
    <symbol id="icon_facebook" viewBox="0 0 1792 1792">
      <path d="M1343 12v264h-157q-86 0-116 36t-30 108v189h293l-39 296h-254v759h-306v-759h-255v-296h255v-218q0-186 104-288.5t277-102.5q147 0 228 12z"/>
    </symbol>
    <symbol id="icon_linkedin" viewBox="0 0 1792 1792">
      <path d="M477 625v991h-330v-991h330zm21-306q1 73-50.5 122t-135.5 49h-2q-82 0-132-49t-50-122q0-74 51.5-122.5t134.5-48.5 133 48.5 51 122.5zm1166 729v568h-329v-530q0-105-40.5-164.5t-126.5-59.5q-63 0-105.5 34.5t-63.5 85.5q-11 30-11 81v553h-329q2-399 2-647t-1-296l-1-48h329v144h-2q20-32 41-56t56.5-52 87-43.5 114.5-15.5q171 0 275 113.5t104 332.5z"/>
    </symbol>
    <symbol id="icon_pinterest" viewBox="0 0 1792 1792">
      <path d="M1664 896q0 209-103 385.5t-279.5 279.5-385.5 103q-111 0-218-32 59-93 78-164 9-34 54-211 20 39 73 67.5t114 28.5q121 0 216-68.5t147-188.5 52-270q0-114-59.5-214t-172.5-163-255-63q-105 0-196 29t-154.5 77-109 110.5-67 129.5-21.5 134q0 104 40 183t117 111q30 12 38-20 2-7 8-31t8-30q6-23-11-43-51-61-51-151 0-151 104.5-259.5t273.5-108.5q151 0 235.5 82t84.5 213q0 170-68.5 289t-175.5 119q-61 0-98-43.5t-23-104.5q8-35 26.5-93.5t30-103 11.5-75.5q0-50-27-83t-77-33q-62 0-105 57t-43 142q0 73 25 122l-99 418q-17 70-13 177-206-91-333-281t-127-423q0-209 103-385.5t279.5-279.5 385.5-103 385.5 103 279.5 279.5 103 385.5z"/>
    </symbol>
    <symbol id="icon_twitter" viewBox="0 0 1792 1792">
      <path d="M1684 408q-67 98-162 167 1 14 1 42 0 130-38 259.5t-115.5 248.5-184.5 210.5-258 146-323 54.5q-271 0-496-145 35 4 78 4 225 0 401-138-105-2-188-64.5t-114-159.5q33 5 61 5 43 0 85-11-112-23-185.5-111.5t-73.5-205.5v-4q68 38 146 41-66-44-105-115t-39-154q0-88 44-163 121 149 294.5 238.5t371.5 99.5q-8-38-8-74 0-134 94.5-228.5t228.5-94.5q140 0 236 102 109-21 205-78-37 115-142 178 93-10 186-50z"/>
    </symbol></svg>